<?xml version="1.0" encoding="UTF-8"?>
<svg id="Layer_1" data-name="Layer 1" xmlns="http://www.w3.org/2000/svg" viewBox="0 0 1024 1024">
  <path d="M606.9,62c4.9,1.7,10,3.1,14.7,5.2,24.5,11.1,39,30,39.8,57.1,1,32.7.8,65.5.2,98.3-.7,36.8-29.1,64.2-66.2,64.3-90.1.2-180.2,0-270.4,0-64.1,0-128.2,0-192.2,0-43.2,0-70.5-27.4-70.6-70.8,0-27.8,0-55.6,0-83.4,0-36.4,17.4-59.4,52.4-69.3.8-.2,1.4-.9,2.1-1.4,163.4,0,326.8,0,490.2,0Z" fill="none" stroke="#26bada" stroke-linecap="round" stroke-linejoin="round" stroke-width="27"/>
  <path d="M961.8,489c-5.7,14.9-9.4,30.9-17.4,44.4-26.4,44.9-81.6,64.2-131.2,47.4-49.2-16.7-81.1-65.6-76-116.6,5.2-52.5,45.8-94.8,97.4-101.4,59.8-7.7,115.1,33,125.5,92.3.3,2,1.1,3.9,1.7,5.8v28.1Z" fill="none" stroke="#26bada" stroke-linecap="round" stroke-linejoin="round" stroke-width="27"/>
  <path d="M847.3,63.6c57.2,10.4,91.6,69.7,71.1,124.1-3.7,9.8-1.6,14.6,5,21.4,13.4,13.6,25.7,28.4,38.5,42.7v14.1c-.8,1.5-1.7,2.9-2.5,4.4-9.1,18.2-30.7,22.4-45.5,8.3-11.9-11.3-23.4-23-34.7-34.8-3.6-3.7-6.4-4.2-11.3-2.1-64.6,27-133.7-21-130.8-90.8,1.7-41.9,33.2-78.3,75.1-87,20.9-3.9,35.1-.2,35.1-.2Z" fill="none" stroke="#26bada" stroke-linecap="round" stroke-linejoin="round" stroke-width="27"/>
  <path d="M961.8,696.3c-6.3,15.9-17.9,21.9-35,21.7-53.3-.6-106.6-.1-159.9-.3-21.7,0-35.6-18.8-28.2-37.8,4.6-11.9,14-18.2,26.5-18.2,55.9-.2,111.8-.1,167.8,0,14.4,0,22.7,8.9,28.8,20.6v14.1Z" fill="#26bada" stroke-width="0"/>
  <path d="M961.8,808.8c-6.3,15.9-17.9,21.9-35,21.7-53.3-.6-106.6-.1-159.9-.3-21.7,0-35.6-18.8-28.2-37.8,4.6-11.9,14-18.2,26.5-18.2,55.9-.2,111.8-.1,167.8,0,14.4,0,22.7,8.9,28.8,20.6v14.1Z" fill="#26bada" stroke-width="0"/>
  <path d="M961.8,921.2c-6.3,15.9-17.9,21.9-35,21.7-53.3-.6-106.6-.1-159.9-.3-21.7,0-35.6-18.8-28.2-37.8,4.6-11.9,14-18.2,26.5-18.2,55.9-.2,111.8-.1,167.8,0,14.4,0,22.7,8.9,28.8,20.6v14.1Z" fill="#26bada" stroke-width="0"/>
  <path d="M661.8,661.7c0,76.1-.9,152.3.4,228.4.7,42.4-31.5,72.1-72.1,71.9-152-.9-304-.4-456-.4-45,0-71.9-27.1-71.9-72.3,0-153.2,0-306.3,0-459.5,0-33.2,20.4-59.3,51.8-66.3,5.9-1.3,12.2-1.5,18.3-1.5,153.2,0,306.3,0,459.5,0,42.9,0,70,27.2,70,70.4,0,76.4,0,152.9,0,229.3ZM361.9,774c27.8,0,55.6.2,83.4,0,16.1-.1,27.2-10.3,29.1-25.8,5.4-44-23.2-81.4-67.5-85.1-28.2-2.3-56.8-2.5-85-.6-46.4,3.2-72.5,33.4-72.2,80.1.2,20.5,11,31.4,31.4,31.5,26.9,0,53.8,0,80.8,0ZM306.1,568c0,31.3,25,56.3,56.2,56.2,30.7,0,55.7-25,56.1-55.7.4-30.9-25-56.6-56-56.7-31.3,0-56.3,24.8-56.3,56.2Z" fill="none" stroke="#26bada" stroke-linecap="round" stroke-linejoin="round" stroke-width="27"/>
</svg>