<?xml version="1.0" encoding="UTF-8"?>
<svg id="Layer_1" data-name="Layer 1" xmlns="http://www.w3.org/2000/svg" viewBox="0 0 1024 1024">
  <path d="M153.8,808.6c-18.7,0-35.9.2-53.1,0-13.9-.2-23.5-7.3-25.4-17.9-2.4-13.2,8.1-24.6,23.6-24.8,17.9-.3,35.7,0,54.2,0v-140.6c-13,0-26.3,0-39.5,0-5.2,0-10.4.2-15.5-.1-13.8-.9-23.4-10.1-23-22,.3-11.5,9.9-20.4,23.4-20.7,17.9-.4,35.8-.1,54.6-.1v-140.6c-17.7,0-35.5.2-53.3,0-14.7-.2-24.7-9.2-24.6-21.5,0-12.5,10.3-21.1,26-21.3,17.2-.2,34.4,0,52.2,0v-140.6c-13.1,0-26.4,0-39.6,0-5.2,0-10.4.1-15.5,0-12.9-.6-22.3-8.9-22.9-20-.6-11.6,8.1-21.4,21.5-22.2,14.1-.9,28.3-.3,42.4-.4,4.5,0,8.9,0,15,0,0-8.7,0-17.1,0-25.4-.2-19.7-.7-39.5,7.8-58.1,19.1-42,53.5-65.4,103.6-69.3,4.8-.4,9.6-.4,14.5-.4,181.4,0,362.8.1,544.2-.1,47.3,0,84.2,16.4,109,53.3,11.6,17.2,16.1,36.3,16.1,56.4,0,226.8.2,453.6-.2,680.4,0,63.7-50.2,109.4-120.8,109.6-184.5.5-369,.5-553.5,0-71.2-.2-120.7-47-120.9-111.6,0-13.4,0-26.8,0-41.4Z" fill="none" stroke="#26bada" stroke-linecap="round" stroke-linejoin="round" stroke-width="27"/>
  <path d="M558.4,740.4c-48.3,0-96.6,0-144.8,0-22,0-30.7-9.1-29.8-31,3.6-84.8,57.8-152,137.3-170.2,99.5-22.7,198.6,47,211.2,148.7.9,7.2,1.8,14.4,2,21.6.6,22.3-7.8,30.9-29.9,31-48.6,0-97.3,0-145.9,0Z" fill="none" stroke="#26bada" stroke-linecap="round" stroke-linejoin="round" stroke-width="28"/>
  <path d="M559.2,481.5c-54.9,0-99.6-44.2-99.7-99-.1-55.3,44.7-100.4,99.7-100.1,54.8.3,99.5,45,99.5,99.7,0,54.8-44.6,99.3-99.5,99.4Z" fill="none" stroke="#26bada" stroke-linecap="round" stroke-linejoin="round" stroke-width="28"/>
</svg>