<?xml version="1.0" encoding="UTF-8"?>
<svg id="Layer_1" data-name="Layer 1" xmlns="http://www.w3.org/2000/svg" viewBox="0 0 1024 1024">
  <g>
    <path d="M842.6,62c-.3,4.4-.8,8.7-.8,13.1,0,291.3,0,582.6,0,873.9s0,8.1,0,12.8h-78.7v-25.6h51.9V89H209.1v51.8h-26.8c0-6.2,0-12.2,0-18.3-.3-20.2-.6-40.4-.9-60.5,220.4,0,440.8,0,661.2,0Z" fill="#26bada" stroke-width="0"/>
    <path d="M208.6,936h527.1v26H182.8V167.9h25.8v768.1Z" fill="#26bada" stroke-width="0"/>
  </g>
  <path d="M302.4,339.2c0-115.6,94-209.8,209.5-209.9,115.5,0,209.6,94,209.7,209.6.1,115.7-93.6,209.5-209.4,209.6-115.9,0-209.6-93.5-209.7-209.3ZM692,338.9c1.5-89.5-70.1-179-180.1-180.4-99.8-1.2-181,80.6-181.2,180.3-.2,100,81.1,181,181.6,180.8,99.4-.1,179.8-81.1,179.7-180.7Z" fill="#26bada" stroke-width="0"/>
  <path d="M512.9,617.9c62.4,0,124.8,0,187.1,0,2.7,0,5.5-.2,8.2.1,7.9,1.1,12.7,5.4,13.1,13.6.4,7.8-4.9,13.6-13.1,14.6-2.4.3-4.8.1-7.3.1-126,0-251.9,0-377.9,0-2.4,0-4.9.1-7.3-.1-8.2-1-13.5-6.8-13.1-14.6.4-8.2,5.2-12.6,13.1-13.6,2.7-.4,5.4-.1,8.2-.1,63,0,126,0,188.9,0Z" fill="#26bada" stroke-width="0"/>
  <path d="M512,715.6c62.7,0,125.3,0,188,0,3.3,0,6.7-.2,10,.3,7.3,1.2,11.1,6,11.3,13.2.2,7.2-3.3,12.3-10.5,13.8-3.5.8-7.2.7-10.8.7-125.3,0-250.6,0-376,0-15.2,0-21.7-4.5-21.4-14.6.3-9.6,6.4-13.4,21.4-13.4,62.7,0,125.3,0,188,0Z" fill="#26bada" stroke-width="0"/>
  <path d="M370.2,866.3c16.3,0,32.6-.1,48.9,0,9.8,0,15.9,5.2,16.2,13.3.4,8.3-6,14.5-16,14.5-32.6.2-65.2.2-97.8,0-10.2,0-16.5-6-16.2-14.3.2-8.3,6.5-13.4,16.9-13.5,16-.1,32,0,48,0Z" fill="#26bada" stroke-width="0"/>
  <path d="M481.5,894.5c-3.3-.3-6.7-.2-9.8-1-6.6-1.8-10.1-6.7-10-13.3.1-6.9,3.8-12.1,11-13.4,4.1-.7,8.4-.5,12.6-.4,9.5.3,15.6,5.8,15.5,13.9,0,7.7-5.9,13.2-14.7,13.9-1.5.1-3,0-4.5,0,0,.1,0,.2,0,.3Z" fill="#26bada" stroke-width="0"/>
  <path d="M496.9,399.2v-51.4c-3.5-.8-6.7-1.6-9.9-2.3-22.2-5.4-37.7-24.8-37.9-47.4-.2-22.4,15.2-42.2,37.4-47.7,5.8-1.4,10.6-2.6,14.1-9,5.1-9.4,18.7-8.5,23.8,1.3,2.5,4.8,5.7,6,10.3,7,22.2,4.7,37.4,21.2,39.8,42.7,1.2,11.2-3.4,18.6-12.4,19.9-8.5,1.2-14.6-4.4-16.7-15.2-2.4-12.3-6.8-16.8-18.2-17.9v37.1c.8.5,1.5,1.1,2.3,1.2,41.7,7.9,60.9,54.9,36.9,90.3-7.7,11.3-18.5,17.9-31.8,21-3.5.8-7.5,3.3-9.4,6.3-7.1,10.8-19.4,10.7-26.5-.3-1.8-2.7-5.5-5.3-8.7-5.9-22.1-4.3-38.5-21.8-40.6-44.2-1-10.4,3.9-17.6,12.7-18.7,8.4-1,14.4,4.2,16.4,14.4,2.5,12.9,6.3,17,18.4,18.7ZM527.2,398.8c11.6-.5,17.4-7,18.1-19.4,1.2-21.9-3.1-29.6-18.1-31.6v51ZM496.8,279.1c-12.1,1.5-18.5,8.9-17.9,20,.6,10.4,7.7,17.1,17.9,16.9v-36.8Z" fill="#26bada" stroke-width="0"/>
</svg>