<?xml version="1.0" encoding="UTF-8"?>
<svg id="Layer_1" data-name="Layer 1" xmlns="http://www.w3.org/2000/svg" viewBox="0 0 1024 1024">
  <g>
    <path d="M352,962c-9.9-5.3-13.2-13.5-12.9-24.7.6-25.7.2-51.5.2-77.2,0-15,6.6-21.7,21.6-21.7,24.2,0,48.3,0,73.3,0,.2-3.9.5-7.1.5-10.3,0-19.1-.2-38.2.1-57.2.2-12.9,7.2-19.7,19.9-19.7,129.6,0,259.1,0,388.7,0,13.2,0,20,6.8,20.2,20.3.3,18.8,0,37.5,0,56.3,0,3.3,0,6.5,0,10.6,24.3,0,47.5.5,70.8-.2,11.2-.3,19.3,3.1,24.7,12.9,0,36.9,0,73.8,0,110.9-202.4,0-404.7,0-607.1,0Z" fill="none" stroke="#26bada" stroke-miterlimit="10" stroke-width="27"/>
    <path d="M503.9,488.4c-2.4,3.3-3.8,6.2-6,8.3-103.4,103.6-206.9,207.1-310.5,310.6-25.2,25.2-57.4,31.5-86.8,17.3-43.4-21-55-77.7-23.2-113.9,3-3.4,6.1-6.6,9.3-9.7,102.3-102.3,204.6-204.7,306.9-306.9,2.4-2.4,5.1-4.3,8.1-6.8-2.4-2.8-3.9-4.7-5.6-6.4-9.5-9.5-19.3-18.8-28.4-28.7-8.5-9.3-15.8-14.9-31-11.4-27.7,6.3-54-8.8-66.5-33.2-12.7-24.8-8.4-53.9,11.9-74.4,50.4-50.8,100.9-101.3,151.7-151.7,22-21.8,53.3-25.4,78.8-9.9,25.3,15.4,36.4,44.8,27.4,74.5-1.4,4.6-.4,7.1,2.7,10.2,64.1,64,128.1,128,192.1,192.2,3.4,3.5,6.2,4.1,10.9,2.6,28.8-8.9,58.4,2.3,73.8,27.4,15.1,24.6,12.2,56.5-8.6,77.6-51,51.7-102.4,103.1-154.1,154.1-21.5,21.2-53.3,23.8-78.2,8-24.7-15.6-35.5-44.9-26.6-73.3,1.5-4.7.8-7.5-2.7-10.9-14.6-14.3-29-28.9-45.5-45.4Z" fill="none" stroke="#26bada" stroke-miterlimit="10" stroke-width="27"/>
    <path d="M616.9,365.9c0,1,.3,3-.3,4.9-2.9,9.3-4.1,17.3,4.4,25.5,5.8,5.6,2.9,16.2-3.5,21.8-6.7,6-15.9,6.7-22.9.1-5.2-5-9-4.4-14.5-1.3-4.3,2.4-9.4,3.5-14.3,4.7-10,2.5-19.8-2.7-22.3-11.3-3-10.4,2.2-18.7,12.7-23.3,7.4-3.2,14.7-7.6,20.8-13,5.4-4.8,4.7-13.9.4-19.2-5-6.2-10.7-4.5-16.6-1.7-14.7,6.9-29.1,14.3-46.3,12.8-23.3-2-42.7-26.7-37.4-49.5,1.8-7.9,2-13.8-4.5-20.2-6.4-6.4-4.9-17.5,1.4-23.6,6.6-6.4,16.5-7.2,23.5-.7,4.8,4.4,8.3,3.7,13.9,1.7,6.2-2.2,13.7-3.4,20.1-2.1,7,1.4,10.6,8.4,10.7,15.5.1,7.9-4.2,13.2-11.3,17.2-6.1,3.5-11.7,8.3-16.4,13.4-1.7,1.8-1.6,7.5,0,9.6,1.6,2,6.6,2.9,9.4,2,7.9-2.6,15.7-6,23.2-9.6,35.6-17.1,69.3,9.6,69.6,46.2Z" fill="#26bada" stroke-width="0"/>
    <line x1="964.6" y1="669.3" x2="821.4" y2="669.3" fill="none" stroke="#26bada" stroke-linecap="round" stroke-linejoin="round" stroke-width="27"/>
    <line x1="827.5" y1="614.1" x2="933" y2="508.6" fill="none" stroke="#26bada" stroke-linecap="round" stroke-linejoin="round" stroke-width="27"/>
  </g>
  <line x1="727.6" y1="856.6" x2="559" y2="856.6" fill="none" stroke="#26bada" stroke-linecap="round" stroke-miterlimit="10" stroke-width="27"/>
</svg>