<?xml version="1.0" encoding="UTF-8"?>
<svg id="Layer_1" data-name="Layer 1" xmlns="http://www.w3.org/2000/svg" viewBox="0 0 1024 1024">
  <path d="M842.2,819.1c-.2,0-.5,0-.7,0-8.4,0-13.6,6.2-13.8,16.5-.1,7.3-.1,14.6,0,21.8,0,3.6,0,7.3,0,10.9,0,18-4.1,22.2-22,22.2h-308.8s-254.7,0-254.7,0c-18.5,0-22.5-4-22.5-22.5,0-256.3,0-512.6,0-769,0-18.8,4.1-22.9,23.4-22.9,93.6,0,187.2,0,280.8,0s187.2,0,280.8,0c19.1,0,23.2,4.1,23.2,23.1,0,26.4,0,52.8,0,79.2,0,55.8,0,113.5,0,170.3,0,.9,0,1.9,0,2.9-.2,3.5-.3,7.1,1.4,9.6,3.2,4.4,8.5,9.1,12.8,9.1s.2,0,.3,0c4.2-.2,8.5-5,12.4-10.1,1.3-1.7,1.1-4.4.9-7,0-1-.2-1.9-.2-2.7,0-80.9,0-167.6,0-253.2,0-31.5-16.7-48.2-48.2-48.2-19.1,0-39.8,0-65,0s-31,0-46.4,0c-15.5,0-31,0-46.4,0-35.1,0-70.3,0-105.4,0-35.1,0-70.3,0-105.4,0-80.1,0-141.6,0-199.5,0-29.6,0-46.7,17.1-47,46.8,0,2.4,0,4.9,0,7.4,0,.9,0,1.9,0,2.9-1.3,0-2.4,0-3.5,0-1.2,0-2.3,0-3.3,0s-2.6,0-3.8,0c-14.3.2-26.1,4.5-34.1,12.5-8,8-12.2,19.8-12.2,34,0,263.9,0,525.1,0,776.4,0,4.3.2,9.9,1.6,15,5.6,20.3,21.8,31.1,46.7,31.1,85.3,0,170.6,0,256,0s206.3,0,309.4,0c3.2,0,6.3,0,9.4-.2,10.4-.7,20-5,27.3-12.3,7.2-7.3,11.6-17,12.2-27.3.2-3.7.2-7.4.1-11.7,0-1.8,0-3.7,0-5.7,1.6,0,3.2,0,4.6,0,1.6,0,3.1,0,4.5,0s3.7,0,5.2-.1c26.1-1.3,43.1-18.9,43.3-44.9,0-12.7,0-25.2,0-37.4,0-7.3-2.4-16.1-13.3-16.5ZM192.1,272.4c0,195.2,0,397.1,0,595.6,0,11.6,1.4,25,11.8,36.1,8.9,9.5,20.6,13.9,37.1,13.9h0c58.4,0,115.6,0,158.9,0s49.8,0,74.8,0c24.9,0,49.8,0,74.8,0h221.3c0,1.7,0,3.3,0,4.8,0,3.6.1,6.7-.1,9.7-.7,9.1-6,14.4-15.2,15.3-1.3.1-2.6.2-4.4.2s-1.6,0-2.4,0c-.8,0-1.6,0-2.4,0-119.2,0-238.4,0-357.6,0h-202.3c-20.2,0-24.3-4.1-24.3-24.1,0-256,0-512.1,0-768.1,0-17.6,4.5-22.2,21.7-22.2h.5c.9,0,1.8,0,2.8,0h2.4s2.6,0,2.6,0v138.9Z" fill="#26bada" stroke-width="0"/>
  <path d="M887.1,493.3c-4.6-22.4-15.8-41.6-32.5-55.5-16.7-13.9-37.3-21.2-59.7-21.2v.5h0v-.5c-.3,0-.5,0-.8,0-21.6.2-42.7,7.9-59.2,21.9-16.5,13.9-27.8,33.4-32.1,54.9-3.6,18.4-7.2,33-11.2,46-9.2,29.6-24.9,56.3-46.6,79.2-.2,0-.3-.1-.4-.2-.4-.2-.7-.3-.9-.4-5.8-4.8-11.6-9.6-17.3-14.5-9.3-7.8-19-15.9-28.6-23.8-10-8.3-20.4-12.4-30.9-12.4s-25,6.4-35.4,18.4c-3.8,4.5-7.7,9.1-11.4,13.5-2.8,3.3-5.6,6.7-8.4,10.1-12.5,14.8-12.6,17.3-.2,31.5-1.5,1.8-3.1,3.6-4.6,5.4-3.8,4.5-7.7,9.1-11.5,13.8-11.1,13.9-9.9,28.2,3.2,39.3,53.8,45.5,108.2,91.2,161.6,135.8,5.5,4.6,11.6,7,17.7,7s14.8-3.7,21-10.6c4.1-4.6,8.2-9.5,12.1-14.1,1.6-1.9,3.2-3.8,4.8-5.7,6.7,4.6,10.8,7,14.7,7s8.7-3.6,15.4-11.7c2.6-3.1,5.2-6.2,7.9-9.3,3.9-4.7,8-9.5,12-14.3,9.5-11.5,14-23.7,13-35.3-1-11.6-7.5-22.8-18.8-32.4-10.6-9-21.1-17.8-32.2-27.1-4.6-3.9-9.3-7.8-14-11.7.9-1,1.7-2,2.6-3,2.1-2.5,4.1-4.9,6.2-7.1,26.1-28.9,59.5-50.6,108.2-70.3,20-8.1,36.7-23,47-42,10.3-18.9,13.6-40.6,9.4-61.1ZM694.9,793.7l-6.3,7.5-10.8,13-105.5-88.5-56.2-47.1,1-1.1,16.1-19.4,76.9,64.5,84.9,71.2ZM666.5,637.5c.2-.3.5-.7.7-1,.8-1.2,1.5-2.3,2.4-3.2,31.3-35.2,50.9-78,59.9-130.9,5.9-34.3,32.7-58.3,65.2-58.3s14.7,1.2,21.9,3.7c12.7,4.3,23.6,12.3,31.7,23.1,8,10.8,12.6,23.7,13.2,37.2,1.1,27.5-15.6,53-41.7,63.4-50,20-73.9,37.4-89.2,50.3-9.3,7.8-17.8,16.2-26.9,25.1-3.9,3.8-7.9,7.7-12,11.7l-25-21ZM706.8,707.1c3.2,2.7,6.3,5.3,9.5,8,8.8,7.4,18,15,26.9,22.7,10.1,8.7,10.9,16.5,2.5,26.8-4,4.9-8,9.7-12.3,14.8-1.7,2.1-3.5,4.2-5.3,6.3l-95.8-80.3-96.8-81.1c1.7-2.1,3.4-4.1,5.1-6.1,4-4.8,7.8-9.4,11.6-13.9,5.3-6.2,10-9.1,14.9-9.1s8.7,2.1,14,6.5c34.2,28.7,69,57.8,102.7,86l23.2,19.5Z" fill="#26bada" stroke-width="0"/>
  <path d="M586.4,167.3c-1.5-1.2-3.7-1.4-5.5-1.4s-1.8,0-2.7,0c-.9,0-1.7,0-2.4,0-31.7,0-62.8,0-91.7,0h-26.2s-26.2,0-26.2,0h-4.6s-27.7,0-27.7,0h-27.7c-30.7,0-61.5,0-92.2,0-.7,0-1.4,0-2.1,0-.7,0-1.4,0-2.1,0-1.5,0-3.4,0-5.3.5-7.8,1.7-11.8,6.6-11.5,14.2.3,7,4.3,11.4,11.8,12.9,1.3.3,2.7.3,3.8.3s1,0,1.5,0c.5,0,1,0,1.5,0,44.6,0,89.3,0,133.9,0s111.3,0,167,0c.6,0,1.2,0,1.9,0,.7,0,1.5,0,2.2,0,1.2,0,2.8-.1,3.9-1.1.5-.4.9-.9,1.4-1.3,3.8-3.4,8.1-7.3,8.2-11.3,0-3.5-3-7.9-9.2-13Z" fill="#26bada" stroke-width="0"/>
  <path d="M586.4,239.8c-1.5-1.1-3.6-1.3-5.2-1.3s-1.9,0-2.8.1c-.9,0-1.8,0-2.6,0-31.9,0-64.1,0-91.4,0h-28.1s-28.1,0-28.1,0h-55.7c-31.3,0-62.6,0-93.9,0-.8,0-1.7,0-2.6-.1-.9,0-1.9-.1-2.8-.1s-3.1.1-4.4,1.1c-5,4-9.5,8.3-9.7,12.6-.1,4.3,4.5,9,9,13,1.4,1.2,3.5,1.4,5.2,1.4s1.6,0,2.4,0c.8,0,1.5,0,2.1,0,49.3,0,98.5,0,147.7,0s100.9,0,151.3,0c.6,0,1.3,0,2,0,.7,0,1.5,0,2.3,0,1.9,0,4.1-.2,5.4-1.4,4.3-4,8.8-8.7,8.9-13.2.1-4.5-5.7-9.6-9.2-12.2Z" fill="#26bada" stroke-width="0"/>
  <path d="M596.2,324.7c-.3-7.4-4.9-12.1-12.9-13-1.1-.1-2.4-.2-3.9-.2s-1.5,0-2.3,0c-.8,0-1.5,0-2.3,0-35.4,0-70.7,0-106.1,0h-96.3c-31.3,0-62.6,0-93.9,0-.8,0-1.7,0-2.6-.1-.9,0-1.9-.1-2.9-.1s-3,.1-4.3,1.1c-4.9,4-9.5,8.3-9.7,12.7-.1,4.3,4.5,9,9.1,13,1.4,1.2,3.5,1.4,5.2,1.4s1.6,0,2.4,0c.7,0,1.5,0,2.1,0,53.5,0,110.9,0,180.4,0s79.1,0,118.7,0c.5,0,.9,0,1.3,0,.4,0,.9,0,1.3,0,1.2,0,2.6,0,4.1-.3,8.4-1.4,12.8-6.5,12.5-14.4Z" fill="#26bada" stroke-width="0"/>
  <path d="M575.2,412h1c3.4,0,6.4,0,9.3-.7,7.1-1.6,10.9-6.5,10.5-13.9-.3-7.1-4.6-11.6-12-12.7-1.1-.2-2.4-.3-4-.3s-1.5,0-2.3,0c-.7,0-1.5,0-2.2,0-31.3,0-62.5,0-93.8,0h-53.8c-49.5,0-99,0-148.5,0-.7,0-1.4,0-2.1,0-.7,0-1.5,0-2.2,0-1.3,0-2.3,0-3.2.1-8.4.7-13.2,5.5-13.3,13.4-.2,7.9,4.3,12.7,12.8,13.9,1.1.2,2.3.2,3.9.2s1.2,0,1.9,0c.6,0,1.2,0,1.8,0,38.3,0,76.7,0,115,0,60.4,0,120.7,0,181.1,0h.1Z" fill="#26bada" stroke-width="0"/>
  <path d="M391.9,457.3c-7.1,0-14.7,0-24,0s-11.3,0-16.9,0c-5.6,0-11.3,0-16.9,0h-.3c-5.8,0-11.5,0-17.3,0-5.8,0-11.5,0-17.3,0-9.7,0-17.6,0-24.8,0-5.4,0-9.6,1.5-12.3,4.3-2.3,2.4-3.5,5.7-3.4,9.7.1,8.5,5.8,13.4,15.4,13.4,19.4,0,39.5.1,59.5.1s39.1,0,59-.1c5.3,0,9.6-1.6,12.5-4.6,2.4-2.5,3.6-5.7,3.5-9.5-.2-8.1-6.7-13.3-16.6-13.3Z" fill="#26bada" stroke-width="0"/>
  <path d="M391.7,530.1c-7.2,0-15,0-24.5,0s-11.3,0-16.9,0c-5.6,0-11.3,0-16.9,0h-.5c-5.7,0-11.3,0-17,0-5.7,0-11.3,0-17,0-9.3,0-16.8,0-23.9,0-13.3,0-16.3,7.2-16.5,13.1-.1,4,1,7.3,3.4,9.8,2.9,3,7.3,4.5,13.2,4.5,19.2,0,38.7.1,57.9.1s39.3,0,58.8-.1c5.7,0,10.4-1.7,13.3-4.8,2.4-2.5,3.6-5.8,3.4-9.5-.3-8.2-6.6-13.1-16.8-13.1Z" fill="#26bada" stroke-width="0"/>
</svg>