<?xml version="1.0" encoding="UTF-8"?>
<svg id="Layer_1" data-name="Layer 1" xmlns="http://www.w3.org/2000/svg" viewBox="0 0 1024 1024">
  <path d="M97.5,220.9c0-32.3,0-64.6,0-96.8,0-37.9,23.8-62,61.6-62,249.7,0,499.4,0,749.1,0,38.6,0,62,23.8,62,62.5,0,243.1,0,486.1,0,729.2,0,32-14.2,51.2-44.3,61-3.3,1.1-6.6,4.1-8.5,7.1-6.1,9.7-11.8,19.8-17.3,29.9-3.9,7.1-9.5,10.4-17.6,10.3-33.9-.1-67.9,0-101.8,0-8.1,0-13.7-3.2-17.6-10.4-4.8-9-10.7-17.4-15.1-26.6-3.5-7.4-8.6-9.3-16.4-9.3-50.1.3-100.1.1-150.2.1-77.7,0-155.5.3-233.2-.3-11.2,0-17.6,3.2-22.1,13.2-3.6,8.1-8.9,15.4-13.1,23.2-3.7,6.7-9.1,10-16.8,10-34.3,0-68.5,0-102.8,0-7.6,0-13.3-3-16.9-9.8-2.3-4.3-5.1-8.5-7.3-12.9-6.9-13.5-14.2-23.9-32.1-27.1-23.9-4.2-38.9-27.2-39.5-52.8-.6-21.1-.3-42.2,0-63.2" fill="none" stroke="#26bada" stroke-linecap="round" stroke-linejoin="round" stroke-width="26.2"/>
  <path d="M533.7,714.6c-129,0-234.2-105.3-234.1-234.3.1-128.9,105.7-234.3,234.5-234,129.2.3,234,105.3,233.9,234.4,0,129.2-105,233.9-234.3,233.9Z" fill="none" stroke="#26bada" stroke-miterlimit="10" stroke-width="24.1"/>
  <path d="M426.7,393.8c-10.1-9.7-20-18.9-29.5-28.4-8.5-8.4-9.2-16.6-2.4-23.3,6.3-6.2,15.3-5.3,23.3,2.8,9.4,9.5,18.6,19.4,28.1,29.3,22-16.8,44.9-27,72.1-30.5,0-14.1,0-28.1,0-42.1,0-8.6,3.6-14.8,12.4-16.4,9.1-1.7,16.4,4.7,16.7,14.8.3,12.2-.2,24.4.4,36.5.1,2.7,3,7.1,5,7.5,24.6,3.8,46.6,13.6,67.5,29.2,9.4-9.5,18.5-19,27.7-28.2,8.2-8.2,16.9-9.1,23.3-2.8,6.6,6.5,5.8,14.8-2.5,23.3-7.6,7.8-15.2,15.6-23.1,23-3.8,3.5-4.5,6.2-1.1,10.8,13.5,17.9,21.7,38.1,25.5,60.3.4,2.5,4.8,6.1,7.5,6.2,11.5.7,23,.2,34.6.4,10.2.2,16.6,5.9,16.6,14.3,0,8.3-6.4,14.5-16.4,14.8-11.5.3-23.1.3-34.6,0-5.3-.1-7.4,1.7-8.2,7.1-3.2,21.5-11.3,41.2-24.4,58.5-4,5.2-3.2,8.3,1.2,12.3,7.9,7.4,15.5,15.2,23.1,23,7.6,7.9,8.2,16.3,1.9,22.6-6,6.1-15.2,5.4-22.7-2-9.5-9.5-18.8-19.2-28.3-29-21,15.6-42.9,25.6-67.6,29.2-2.1.3-5,4.8-5.1,7.5-.6,11.2-.2,22.4-.3,33.6,0,12.1-5.1,18.1-14.7,17.9-9.4-.2-14.4-6.5-14.4-18.4,0-13.1,0-26.2,0-40-25.2-3.7-47.5-12.5-67.5-27.2-1.5-1.1-6.3,0-8.1,1.5-8.7,8-16.8,16.7-25.3,25-7.6,7.4-16.6,8.2-22.7,2.1-6.5-6.5-6-14.6,1.9-22.5,9.8-9.7,19.9-19.1,30.2-29-16.4-21.9-26.6-44.8-29.9-72-5.6,0-11.1,0-16.5,0-9.2,0-18.5.3-27.7-.2-9.7-.5-15.2-6.2-15.2-14.7,0-8.6,5.5-14,15.4-14.3,11.8-.3,23.7-.3,35.6-.1,5.6,0,8.7-.9,9.7-7.8,3.4-23.5,13.6-44.4,28.5-64.5ZM534.1,589c59.5-.1,108.7-49.8,108.3-109.2-.4-59-49.7-108-108.7-107.8-59.6.2-108.8,49.9-108.2,109.2.6,59.4,49.5,108,108.6,107.8Z" fill="#26bada" stroke-width="0"/>
  <path d="M139.1,585c0-7-3.6-10.6-10.8-11-4.9-.3-9.8-.3-14.7,0-3.5.2-5.3-.7-6.1-3,.3-1.1.4-2.3.5-3.3.5-25.4.2-90.9.2-116.3v-8.4c7.1,0,13.4.2,19.6,0,7.4-.3,11.2-4,11.3-11.5.1-34.3.1-103.4,0-137.7,0-7-3.8-11.4-10.6-11.5-20.8-.3-41.5-.3-62.3,0-7,0-10.6,4.3-10.6,11.3,0,34.5,0,103.9,0,138.4,0,7,3.6,10.6,10.8,11,4.9.3,9.8.3,14.7,0,3.5-.2,5.3.7,6.1,3-.3,1.1-.4,2.3-.5,3.3-.5,25.4-.2,90.9-.2,116.3v8.4c-7.1,0-13.4-.2-19.6,0-7.4.3-11.2,4-11.3,11.5-.1,34.3-.1,103.4,0,137.7,0,7,3.8,11.4,10.6,11.5,20.8.3,41.5.3,62.3,0,7,0,10.6-4.3,10.6-11.3,0-34.5,0-103.9,0-138.4Z" fill="#26bada" stroke-width="0"/>
</svg>