<?xml version="1.0" encoding="UTF-8"?>
<svg id="Layer_1" data-name="Layer 1" xmlns="http://www.w3.org/2000/svg" viewBox="0 0 1024 1024">
  <path d="M917.4,194.2c0-32.4-12.9-54-39.6-66-9.7-4.4-21-5.5-30.8-6.1-11.8-.7-23.6-.5-36-.4-5.1,0-10.4.1-15.8.1,0-2.1,0-4.1,0-6.1,0-4.7,0-9.2,0-13.7-.9-21.1-15.7-37.6-35.9-40-24.9-3-44.9,9-49.7,30-1.5,6.4-1.6,12.9-1.8,19.9,0,3-.1,6.1-.3,9.2h-391.3c0-1.8,0-3.7,0-5.5,0-4.3,0-8.7,0-13.1-.6-23.6-17.6-40.4-41.5-40.7-26.4-.3-44.2,15.1-45.6,39.4-.3,4.5-.2,9.1-.1,13.9,0,2.2,0,4.4,0,6.8-4.6,0-9.2,0-13.7,0-11,0-21.4-.1-32,.2h-.4c-9.5.3-19.2.6-28.3,3.1-27.1,7.3-46.2,31.6-47.5,60.3-.1,2.6-.2,5.4-.2,8.8,0,54.9,0,109.9,0,164.8,0,174.3,0,354.6-.1,531.8,0,25.3,8,43.7,24.4,56.1,6.3,4.7,13.8,8,21.1,11.1,3.3,1.4,6.7,2.9,9.9,4.4h.1s699.7,0,699.7,0h0c.9-.4,1.9-.7,2.8-1,2-.7,4-1.5,6.1-2.1,26.7-8.5,44.8-31.9,46.2-59.7.1-2.8.2-5.9.2-9.7,0-59.3,0-118.7,0-178,0-169.7,0-345.2.1-517.8ZM288.9,121.4h-32.9c.5-3.3.2-6.8,0-10.1-.5-7.5-1.1-14.5,6.3-19.2,4.7-3,14.1-3.4,19.2-.8,8.4,4.3,7.9,11.5,7.3,19.2-.3,3.6-.5,7.3,0,10.8ZM134.1,897.2c16.8,11.8,33.9,12.7,54.5,12.7,207.2-.2,365.2-.2,512.3,0,0,0,.1,0,.2,0,23.5,0,42-7.7,58.2-24.2,29.5-30,59.9-60.2,89.2-89.5,11.2-11.2,22.5-22.4,33.7-33.6,1.4-1.4,3-2.9,4.7-4.5.7-.7,1.5-1.4,2.3-2.2,0,.8.2,1.5.2,2.2.2,1.8.4,3.1.4,4.5v23.7c0,34.9,0,70.9,0,106.4,0,26.9-15.7,42.4-42.9,42.4-223.5,0-447,0-670.5,0-20.8,0-35.7-10.3-40.9-28.2-.5-1.9-.8-3.8-1.1-6.3-.1-1-.3-2.2-.4-3.4ZM228.9,186.6c.4,20.2,12.4,35.6,31.2,40.3,2.8.7,5.7,1,8.8,1h0c7.9,0,12.7-4,13.9-11.6,1.2-7.3-3.2-13.4-11-15.4-14-3.4-15.6-5.5-15.6-19.7,0-7.2,0-14.4,0-21.8v-9.7h451.9c0,3.8,0,7.7,0,11.5,0,8.9-.1,18,.1,27,.4,18.9,12.5,34.1,30.9,38.6,2.8.7,5.9,1.1,8.8,1,7.9,0,13.9-5.3,14.2-12.5.3-7.5-3.5-12.5-11.2-14.5-14.5-3.7-15.4-4.8-15.4-19.7,0-7.2,0-14.4,0-22v-10.2h8.8c10.3,0,20.5,0,30.8,0,23.3,0,47.4,0,71.2,0,28.2,0,43.8,15.5,43.9,43.4,0,25.4,0,51.2,0,76.2,0,10.9,0,21.9,0,32.8v8.8h-65.2c-162.4,0-324.8,0-487.2,0h-1c-3.5,0-7,0-10.5.6-6.7,1.2-10.7,6.1-10.7,12.9,0,7.4,4.1,12.2,11.2,13.3,3.3.5,6.7.5,10,.5h1.4c162.2,0,324.5,0,486.7,0h64.7c0,1.1.1,2.1.2,3.1.2,2.2.3,4.3.3,6.3,0,130.1,0,230.7,0,326,0,23.8-11.1,34.9-35,35-9.6,0-19.3,0-28.9,0-16.2,0-32.9,0-49.3,0-37.7.2-61.2,23.7-61.3,61.4,0,12.1,0,24.1,0,36.2,0,14.6,0,29.2,0,43.8,0,21-11.9,33-32.5,33-186.3,0-352.2,0-507.1,0-25.7,0-41.7-16-41.7-41.8,0-141.1,0-284.5,0-423.3v-71.4c0-1.7.1-3.4.2-5.4,0-.9.1-1.9.2-2.9h35.9c32.8,0,65.6,0,98.3,0h1c3.2,0,6.5,0,9.6-.7,6.3-1.4,9.9-5.8,10.1-12.3.3-7.1-3.2-11.9-9.8-13.5-3.2-.8-6.7-.8-10-.8h-.5c-32.7,0-65.4,0-98,0h-36.5c0-1-.1-2-.2-2.9-.1-2.1-.3-4-.3-5.8v-14.6c0-30.9,0-62.9,0-94.4,0-27.9,15.6-43.3,43.8-43.4,11.4,0,22.8,0,34.6,0,5.3,0,10.7,0,16.2,0,0,3.9,0,7.8,0,11.6,0,8.9,0,17.3,0,25.9ZM742.9,860c0-8.8,0-17.7,0-26.7,0-23-.2-46.8.2-70.5.3-15.3,12.7-27,28.9-27.3,9.8-.2,19.8-.2,29.7-.2s10.9,0,16.3,0c6.4,0,12.7,0,19.1,0,8,0,16,0,23.2,0h7.3s-124.6,124.6-124.6,124.6ZM766.5,121.5h-31.2c.5-3.3.2-6.7,0-10-.6-7.2-1.1-13.9,5.4-19.4,5.6-4.7,13.3-4.9,20.9-.6,6.8,3.8,8.7,15.6,4.9,30.1Z" fill="#26bada" stroke-width="0"/>
  <path d="M274.3,552.5c-21.4-.5-42.4-.5-62.4,0-15.5.4-25.6,10.8-25.9,26.3-.4,20.8-.4,41.8,0,62.4.3,15.7,10.8,26,26.8,26.2,3.8,0,7.6,0,11.5,0s6.1,0,9.1,0c3,0,6.1,0,9.1,0,3.2,0,6.4,0,9.6,0,7,0,14.2,0,21.4,0,16.3-.2,27.1-10.7,27.5-26.6.5-20,.5-40.7,0-61.5-.3-15.9-10.8-26.5-26.6-26.8ZM273,580.1v59.6h-59.2v-59.6h59.2Z" fill="#26bada" stroke-width="0"/>
  <path d="M632.8,552.5c-20.1-.5-41.1-.6-62.4,0-15.5.4-25.8,10.6-26.3,26.1-.6,21.8-.6,43.1,0,63.3.5,15.6,11,25.5,27.4,25.7,3.8,0,7.6,0,11.4,0s6.2,0,9.3,0c3.1,0,6.1,0,9.2,0,3.1,0,6.2,0,9.3,0,6.8,0,13.7,0,20.6,0,17.1-.2,27.4-10.4,27.7-27.3.3-20.4.3-40.8,0-60.6-.3-16-10.5-26.7-26.2-27.1ZM631.2,580.1v59.4h-59.3v-59.4h59.3Z" fill="#26bada" stroke-width="0"/>
  <path d="M454.6,552.6c-20.6-.7-42.2-.7-64.2,0-14.4.4-24.7,10.4-25.1,24.3-.6,22.7-.6,45.2,0,66.8.4,13.5,11.1,23.5,25.4,23.8,4,0,7.9.1,11.9.1s6.2,0,9.2,0c3.2,0,6.5,0,9.7,0,3,0,6,0,9.1,0,7.1,0,14.5,0,21.7,0,16.7-.2,27.3-10.3,27.7-26.4.5-20.7.5-41.7,0-62.4-.4-15.1-10.6-25.6-25.3-26.1ZM452.1,580.1v59.5h-59.2v-59.5h59.2Z" fill="#26bada" stroke-width="0"/>
  <path d="M213.2,389.5c-17.1.4-27.1,10.4-27.3,27.7-.3,20-.3,40.1,0,59.8.2,17,10.2,27.1,27.4,27.6,3.8.1,7.6.1,11.4.1s6.1,0,9.2,0c3.1,0,6.1,0,9.2,0,3.1,0,6.2,0,9.3,0,6.8,0,13.8,0,20.7,0,17.5-.5,27.7-10.7,28-28.1.3-19.7.3-39.5,0-58.9-.2-17.1-10.4-27.6-27.1-28-19.4-.5-39.8-.5-60.6,0ZM273,417.3v59.1h-59.3v-59.1h59.3Z" fill="#26bada" stroke-width="0"/>
  <path d="M391.7,504.5c3.9.1,7.8.2,11.7.2s6.4,0,9.6,0c3.1,0,6.3,0,9.4,0,3.2,0,6.4,0,9.6,0,6.9,0,14.1.1,21.2-.1,16.1-.6,26.3-10.7,26.7-26.5.5-19.7.5-39.8,0-61.5-.3-16.1-10.4-26.4-26.4-26.9-20.8-.6-41.8-.6-62.4,0-16.1.4-25.9,10.5-26.2,26.9-.4,21.4-.4,42.1,0,61.5.4,16,10.3,25.9,26.6,26.5ZM392.8,476.4v-59.1h59.3v59.1h-59.3Z" fill="#26bada" stroke-width="0"/>
  <path d="M749.2,504.4c10.7.2,21.4.4,32.2.4s20.2-.1,30.2-.3c16.3-.3,26.2-10.6,26.5-27.5.1-7,0-14.1,0-21,0-3,0-5.9,0-8.9,0-3.3,0-6.5,0-9.8,0-6.9,0-14,0-21-.4-15.9-10.2-26.1-25.5-26.6-20.9-.6-42.5-.6-64.2,0-14.6.4-24.5,10-25,24.3-.8,22-.8,44.2,0,65.9.6,14.5,10.7,24.1,25.8,24.5ZM750.3,429.4c0-4,0-8.1,0-12.2h60v59.9c-3.6,0-7.2,0-10.8,0-15,0-30.5,0-45.7-.2-1,0-3.3-3.1-3.3-4.8-.2-14.1-.2-28-.2-42.7Z" fill="#26bada" stroke-width="0"/>
  <path d="M749.7,671.4c10.8.2,21.3.3,31.4.3s20.8-.1,31-.4c15.7-.4,25.7-10.7,26.1-27,.2-6.8.1-13.8,0-20.5,0-3.1,0-6.3,0-9.4,0-3,0-6,0-9,0-6.8,0-13.9,0-20.9-.3-17.4-10.1-27.7-26.9-28.1-20.4-.5-41.1-.5-61.5,0-15.9.4-26,10.3-26.5,25.8-.7,20.9-.7,42.2,0,63.3.5,15.6,10.6,25.5,26.4,25.8ZM750.9,643.6v-59.3h59.4v59.3h-59.4Z" fill="#26bada" stroke-width="0"/>
  <path d="M570.9,504.5c10.4.2,20.7.3,30.8.3s20.7-.1,30.7-.3c15.9-.3,26-10.5,26.6-26.6.2-7,.2-14.1.1-21,0-3.3,0-6.5,0-9.8,0-2.9,0-5.9,0-8.8,0-6.9,0-14.1,0-21.1-.4-16.9-10.3-27.2-26.4-27.6-20.7-.6-41.7-.5-62.4,0-15.7.4-25.7,10.4-26.1,26.1-.6,20.6-.6,41.5,0,62.4.4,16,10.7,26,26.8,26.4ZM571.9,476.7v-59.2h59.1v59.2h-59.1Z" fill="#26bada" stroke-width="0"/>
  <path d="M273.8,715.5c-21.9-.3-42-.3-61.4,0-15.5.2-26.1,10.5-26.4,25.7-.4,20.3-.4,41.6,0,63.2.3,15.4,11.1,25.9,26.8,26.2,3.8,0,7.6,0,11.4,0s6.1,0,9.1,0c3,0,6.1,0,9.1,0,3.2,0,6.4,0,9.6,0,7,0,14.2,0,21.3,0,16.4-.2,27.2-10.7,27.6-26.7.5-21.5.5-42.5,0-62.3-.4-15.5-11.3-26-27.1-26.2ZM273.2,743.3v59.5h-59.4v-59.5h59.4Z" fill="#26bada" stroke-width="0"/>
  <path d="M454.3,715.6c-22.5-.4-43.5-.4-64,0-14.1.3-24.5,10.5-24.9,24.3-.6,21.7-.7,43.8,0,65.8.4,14.3,11.2,24.6,26.2,24.9,3.9,0,7.9.1,11.8.1s6.2,0,9.3,0c3.1,0,6.2,0,9.3,0,3.2,0,6.4,0,9.6,0,7,0,14.3,0,21.4,0,15.5-.3,26.3-10.1,26.8-24.4.8-22,.8-44.5,0-66.6-.5-13.6-11.2-23.7-25.4-24ZM452.1,743.4v59.7h-59.1v-59.7h59.1Z" fill="#26bada" stroke-width="0"/>
  <path d="M543.9,757.3c0,.8,0,1.7.1,2.5.9,8.3,5.8,13.2,13.3,13.3,8,.1,13.2-5,13.7-13.8.2-3.8.2-7.5.1-11.4,0-1.6,0-3.2,0-4.7h60v60c-4,0-8,0-12,0-15.2,0-29.6,0-44.2-.2-1.4,0-3.6-2.2-4.7-4.1-4-7-9.7-9.6-16.7-7.5-6.9,2.1-10.1,7.6-9.2,15.7,1.5,13.5,12.2,23.1,26.2,23.3,9.2.1,18.5.2,27.7.2s19.1,0,28.5,0h3.5c18.1,0,28.5-10.3,28.8-28.1.2-19,.2-38.8,0-58.9-.2-17.8-10.7-28.1-28.6-28.2-5.6,0-11.4,0-17,.1-10,.1-20.3.3-30.5-.3-15-.8-25.4,1.8-31.5,8-6.2,6.3-8.6,16.5-7.6,32.1,0,.6,0,1.2,0,1.9Z" fill="#26bada" stroke-width="0"/>
</svg>